<?xml version="1.0" encoding="utf-8"?>
<!-- Generator: Adobe Illustrator 24.0.3, SVG Export Plug-In . SVG Version: 6.00 Build 0)  -->
<svg version="1.1" id="Layer_1" xmlns="http://www.w3.org/2000/svg" xmlns:xlink="http://www.w3.org/1999/xlink" x="0px" y="0px"
	 viewBox="0 0 159.6 142.7" style="enable-background:new 0 0 159.6 142.7;" xml:space="preserve">
<style type="text/css">
	.st0{opacity:3.000000e-02;}
	.st1{fill:none;stroke:#626161;stroke-miterlimit:10;}
</style>
<g class="st0">
	<path class="st1" d="M72,47.4c-1.3-0.7-3-0.2-3.7,1.1s-0.2,3,1.1,3.7c1.3,0.7,3,0.2,3.7-1.1C73.8,49.8,73.3,48.1,72,47.4z"/>
	<path class="st1" d="M64.1,61.9c-1.3-0.7-3-0.2-3.7,1.1c-0.7,1.3-0.2,3,1.1,3.7c1.3,0.7,3,0.2,3.7-1.1S65.5,62.6,64.1,61.9z"/>
	<path class="st1" d="M117,102.9c-1.3-0.7-3-0.2-3.7,1.1c-0.7,1.3-0.2,3,1.1,3.7c1.3,0.7,3,0.2,3.7-1.1S118.3,103.6,117,102.9z"/>
	<path class="st1" d="M33.6,4.9L2.3,63c-0.5,0.9-0.4,2,0.1,2.8c0.6,0.9,1.6,1.3,2.6,1.2l27.8-3.2l6.5,3.5l-3.9,7.3
		c-2.2,4-0.7,9,3.3,11.2l12.1,6.5L47,99.5c-0.7,1.3-0.2,3,1.1,3.7l7.3,3.9l-6.5,12.1c-0.7,1.3-0.2,3,1.1,3.7L79,138.6
		c1.3,0.7,3,0.2,3.7-1.1l6.5-12.1l7.3,3.9c1.3,0.7,3,0.2,3.7-1.1l3.9-7.3l13.6,7.3c4,2.2,9,0.7,11.2-3.3l23.5-43.6
		c2.2-4,0.7-9-3.3-11.2l-10.5-5.6c5.9-1.4,11.3-5.2,14.4-11c5.8-10.7,1.7-24-8.9-29.8c-7.3-3.9-15.8-3.3-22.3,0.9
		c-0.1-7.7-4.3-15.2-11.6-19.1c-10.7-5.8-24-1.7-29.8,8.9c-3.1,5.8-3.4,12.3-1.3,18.1l-9-4.8c-4-2.2-9-0.7-11.2,3.3l-1.3,2.4
		l-6.5-3.5l-12.6-25c-0.5-0.9-1.4-1.5-2.4-1.5C35.1,3.4,34.1,4,33.6,4.9z M114.2,32.7c-4.3,8-14.3,11-22.4,6.7S80.9,25,85.2,17
		c4.3-8,14.3-11,22.4-6.7S118.6,24.7,114.2,32.7z M111.6,43.3c0,2.5,0.5,5,1.4,7.4l-8.3-4.5C107.1,45.7,109.5,44.7,111.6,43.3z
		 M125.8,57.6c-8-4.3-11-14.3-6.7-22.4c4.3-8,14.3-11,22.4-6.7s11,14.3,6.7,22.4C143.8,59,133.8,62,125.8,57.6z M60.2,109.8l24.2,13
		l-5.2,9.7l-24.2-13L60.2,109.8z M55.7,94.9l43.6,23.5l-2.6,4.8L53.1,99.7L55.7,94.9z M63.8,33.6c0.7-1.3,2.4-1.8,3.7-1.1L146.4,75
		c1.3,0.7,1.8,2.4,1.1,3.7L124,122.3c-0.7,1.3-2.4,1.8-3.7,1.1L41.4,80.9c-1.3-0.7-1.8-2.4-1.1-3.7L63.8,33.6z M42,62.5l-4.8-2.6
		l13-24.2l4.8,2.6L42,62.5z M36,12.1l10,19.8L31.7,58.4l-22,2.5L36,12.1z"/>
	<path class="st1" d="M126.3,39.2c-2.2,4-0.7,9,3.3,11.2c4,2.2,9,0.7,11.2-3.3c2.2-4,0.7-9-3.3-11.2
		C133.5,33.7,128.5,35.2,126.3,39.2z M131.2,41.8c0.7-1.3,2.4-1.8,3.7-1.1c1.3,0.7,1.8,2.4,1.1,3.7c-0.7,1.3-2.4,1.8-3.7,1.1
		C131,44.8,130.5,43.1,131.2,41.8z"/>
	<path class="st1" d="M107,28.8c2.2-4,0.7-9-3.3-11.2s-9-0.7-11.2,3.3c-2.2,4-0.7,9,3.3,11.2C99.8,34.3,104.8,32.8,107,28.8z
		 M102.1,26.2c-0.7,1.3-2.4,1.8-3.7,1.1c-1.3-0.7-1.8-2.4-1.1-3.7c0.7-1.3,2.4-1.8,3.7-1.1C102.4,23.2,102.9,24.8,102.1,26.2z"/>
	<path class="st1" d="M123.3,96.9l7.8-14.5c0.7-1.3,0.2-3-1.1-3.7L96.2,60.4c-1.3-0.7-3-0.2-3.7,1.1l-7.8,14.5
		c-0.7,1.3-0.2,3,1.1,3.7l33.9,18.3C121,98.8,122.6,98.3,123.3,96.9z M119.8,91.9L90.8,76.3l5.2-9.7L125,82.2L119.8,91.9z"/>
	<path class="st1" d="M107.3,97.7L58.9,71.6c-1.3-0.7-3-0.2-3.7,1.1c-0.7,1.3-0.2,3,1.1,3.7l48.4,26.1c1.3,0.7,3,0.2,3.7-1.1
		S108.7,98.4,107.3,97.7z"/>
</g>
</svg>
