<?xml version="1.0" encoding="utf-8"?>
<!-- Generator: Adobe Illustrator 24.0.3, SVG Export Plug-In . SVG Version: 6.00 Build 0)  -->
<svg version="1.1" id="Layer_1" xmlns="http://www.w3.org/2000/svg" xmlns:xlink="http://www.w3.org/1999/xlink" x="0px" y="0px"
	 viewBox="0 0 184.2 193.9" style="enable-background:new 0 0 184.2 193.9;" xml:space="preserve">
<style type="text/css">
	.st0{opacity:3.000000e-02;}
	.st1{fill:none;stroke:#626161;stroke-miterlimit:10;}
</style>
<g class="st0">
	<path class="st1" d="M134.3,47.9l-90.5,53.2l72.1-76.3c0.6-0.6,0.9-1.4,0.8-2.2c0-0.8-0.4-1.6-1-2.1L102,7.4
		c-5.5-5.2-13.9-6.1-20.5-2.3c-1.4,0.8-2.6,1.8-3.7,3L10.1,79.8C6.9,83.1,5.3,87.4,5.4,92c0.1,4.6,2,8.8,5.3,12l13.5,12.7l37.2,63.2
		c4.8,8.1,15.3,10.9,23.4,6.1l31.9-18.8c1.5-0.9,2-2.7,1.1-4.2c-0.9-1.5-2.7-2-4.2-1.1l-31.9,18.8c-5.2,3.1-12,1.3-15-3.9
		l-21.2-36.1l13.6-8l0,0l0,0l20.8-12.2l0,0l0,0l20.8-12.2l0,0l0,0L121.4,96l0,0l0,0l27.9-16.4l21.2,36.1c3.1,5.2,1.3,12-3.9,15
		l-31.9,18.8c-1.5,0.9-2,2.7-1.1,4.2c0.9,1.5,2.7,2,4.2,1.1l31.9-18.8c8.1-4.8,10.9-15.3,6.1-23.4L138.5,49
		C137.6,47.5,135.7,47,134.3,47.9z M102.1,100.2l-0.2-26.2l14.7-8.6l0.2,26.1L102.1,100.2z M81.3,112.4l-0.2-26.2l14.7-8.6l0.2,26.1
		L81.3,112.4z M60.5,124.7l-0.2-26.1L75,89.9l0.2,26.2L60.5,124.7z M50.2,84.5l-29.5-7l11.7-12.4c0.2,0.1,0.4,0.2,0.6,0.2l29.5,7
		L50.8,84.7C50.6,84.6,50.4,84.6,50.2,84.5z M66.1,30.2l29.5,7L83.9,49.7c-0.2-0.1-0.4-0.2-0.6-0.2l-29.5-7L65.5,30
		C65.7,30.1,65.9,30.2,66.1,30.2z M49.5,47.8l29.5,7L67.4,67.2C67.2,67.1,67,67,66.8,67l-29.5-7L49,47.6
		C49.1,47.6,49.3,47.7,49.5,47.8z M82.2,12.3c0.7-0.7,1.5-1.4,2.4-1.9c4.2-2.5,9.6-1.9,13.1,1.5l11.5,10.9l-8.8,9.3
		c-0.2-0.1-0.4-0.2-0.6-0.2l-29.5-7L82.2,12.3z M11.6,91.8c-0.1-2.9,1-5.7,3-7.8l1.3-1.4c0.2,0.1,0.4,0.2,0.6,0.2l29.5,7l-19.4,20.6
		L15,99.5C12.9,97.5,11.6,94.8,11.6,91.8z M30.9,115.8l23.3-13.7l0.2,26.1l-12.1,7.1L30.9,115.8z M122.9,88l-0.2-26.1l12.1-7.1
		l11.5,19.5L122.9,88z"/>
	<path class="st1" d="M129,121.8c-0.6-0.9-1.6-1.5-2.7-1.5l-31.2,0.3c-1.1,0-2.1,0.6-2.7,1.6s-0.5,2.1,0,3.1l15.8,26.9
		c0.6,0.9,1.6,1.5,2.7,1.5c0.5,0,1.1-0.2,1.5-0.4c0.5-0.3,0.8-0.7,1.1-1.1l15.4-27.2C129.6,124,129.6,122.8,129,121.8z M110.9,144.4
		l-10.4-17.7l20.6-0.2L110.9,144.4z"/>
	<path class="st1" d="M124.7,154.4c-1.5,0.9-2.1,2.9-1.2,4.5s2.9,2.1,4.5,1.2s2.1-2.9,1.2-4.5S126.3,153.5,124.7,154.4z"/>
</g>
</svg>
