<?xml version="1.0" encoding="utf-8"?>
<!-- Generator: Adobe Illustrator 24.0.3, SVG Export Plug-In . SVG Version: 6.00 Build 0)  -->
<svg version="1.1" id="Layer_1" xmlns="http://www.w3.org/2000/svg" xmlns:xlink="http://www.w3.org/1999/xlink" x="0px" y="0px"
	 viewBox="0 0 232.2 223.8" style="enable-background:new 0 0 232.2 223.8;" xml:space="preserve">
<style type="text/css">
	.st0{opacity:5.000000e-02;fill:#454A49;}
	.st1{fill:none;stroke:url(#SVGID_1_);stroke-miterlimit:10;}
	.st2{fill:none;stroke:url(#SVGID_2_);stroke-miterlimit:10;}
	.st3{fill:none;stroke:url(#SVGID_3_);stroke-miterlimit:10;}
	.st4{fill:url(#SVGID_4_);}
	.st5{fill:none;stroke:url(#SVGID_5_);stroke-miterlimit:10;}
	.st6{fill:none;stroke:url(#SVGID_6_);stroke-miterlimit:10;}
	.st7{fill:none;stroke:url(#SVGID_7_);stroke-miterlimit:10;}
	.st8{fill:none;stroke:url(#SVGID_8_);stroke-miterlimit:10;}
	.st9{fill:none;stroke:url(#SVGID_9_);stroke-miterlimit:10;}
	.st10{fill:none;stroke:url(#SVGID_10_);stroke-miterlimit:10;}
	.st11{fill:none;stroke:url(#SVGID_11_);stroke-miterlimit:10;}
	.st12{fill:none;stroke:url(#SVGID_12_);stroke-miterlimit:10;}
</style>
<path class="st0" d="M53.4,65.4c15.5-9.1,29.4-20.7,40.5-34.5C100.5,22.7,119.6,9,134,3.7c12.5-4.6,44.6-11.3,50.2,25
	c5.7,36.3-7.1,47.8,14.8,61.1c16.1,9.7,37.7,16.1,32.4,34.4c-8.3,28.4-69,98.3-120.7,99.5c-51.7,1.2-64.5-1.7-71.9-42.1
	c-7.4-40.4-40.4-26.8-38.7-61C1.1,100.1,30.2,79,53.4,65.4z"/>
<linearGradient id="SVGID_1_" gradientUnits="userSpaceOnUse" x1="79.6467" y1="97.0397" x2="85.9916" y2="97.0397">
	<stop  offset="0" style="stop-color:#3D3356"/>
	<stop  offset="1" style="stop-color:#E9476E"/>
</linearGradient>
<path class="st1" d="M82.8,99.7c0.7,0,1.4-0.3,1.9-0.8c0.5-0.5,0.8-1.2,0.8-1.9c0-0.7-0.3-1.4-0.8-1.9c-0.5-0.5-1.2-0.8-1.9-0.8
	c-0.7,0-1.4,0.3-1.9,0.8c-0.5,0.5-0.8,1.2-0.8,1.9c0,0.7,0.3,1.4,0.8,1.9C81.4,99.4,82.1,99.7,82.8,99.7z"/>
<linearGradient id="SVGID_2_" gradientUnits="userSpaceOnUse" x1="116.0377" y1="98.0628" x2="122.3826" y2="98.0628">
	<stop  offset="0" style="stop-color:#3D3356"/>
	<stop  offset="1" style="stop-color:#E9476E"/>
</linearGradient>
<path class="st2" d="M121.1,96.2c-0.5-0.5-1.2-0.8-1.9-0.8c-0.7,0-1.4,0.3-1.9,0.8c-0.5,0.5-0.8,1.2-0.8,1.9c0,0.7,0.3,1.4,0.8,1.9
	c0.5,0.5,1.2,0.8,1.9,0.8c0.7,0,1.4-0.3,1.9-0.8c0.5-0.5,0.8-1.2,0.8-1.9C121.9,97.4,121.6,96.7,121.1,96.2z"/>
<linearGradient id="SVGID_3_" gradientUnits="userSpaceOnUse" x1="125.3912" y1="88.7093" x2="131.7361" y2="88.7093">
	<stop  offset="0" style="stop-color:#3D3356"/>
	<stop  offset="1" style="stop-color:#E9476E"/>
</linearGradient>
<path class="st3" d="M128.6,91.4c0.7,0,1.4-0.3,1.9-0.8c0.5-0.5,0.8-1.2,0.8-1.9s-0.3-1.4-0.8-1.9c-0.5-0.5-1.2-0.8-1.9-0.8
	c-0.7,0-1.4,0.3-1.9,0.8c-0.5,0.5-0.8,1.2-0.8,1.9s0.3,1.4,0.8,1.9C127.2,91.1,127.9,91.4,128.6,91.4z"/>
<linearGradient id="SVGID_4_" gradientUnits="userSpaceOnUse" x1="47.7518" y1="110.178" x2="184.5803" y2="110.178">
	<stop  offset="0" style="stop-color:#3D3356"/>
	<stop  offset="1" style="stop-color:#E9476E"/>
</linearGradient>
<path class="st4" d="M176.6,107.5h-7.5l13.1-13.1c1.5-1.5,2.3-3.5,2.3-5.7s-0.8-4.2-2.3-5.7l-11.9-11.9c-1-1-2.7-1-3.8,0
	c-1.5,1.5-3.5,2.3-5.7,2.3c-2.1,0-4.2-0.8-5.7-2.3c-1.5-1.5-2.3-3.5-2.3-5.7c0-2.1,0.8-4.2,2.3-5.7c0.5-0.5,0.8-1.2,0.8-1.9
	s-0.3-1.4-0.8-1.9l-11.9-11.9c-1.5-1.5-3.5-2.3-5.7-2.3c-2.1,0-4.2,0.8-5.7,2.3L87.8,88.3c-1,1-1,2.7,0,3.8c1,1,2.7,1,3.8,0
	l44.1-44.1c0.5-0.5,1.2-0.8,1.9-0.8s1.4,0.3,1.9,0.8l10.2,10.2c-1.4,2.2-2.2,4.7-2.2,7.4c0,3.6,1.4,6.9,3.9,9.4
	c2.5,2.5,5.9,3.9,9.4,3.9c2.7,0,5.2-0.8,7.4-2.2l10.2,10.2c1,1,1,2.7,0,3.8l-16.9,16.9h-11.7l8.8-8.8c1-1,1-2.7,0-3.8l-27.2-27.2
	c-1-1-2.7-1-3.8,0l-39.8,39.8H55.8c-4.4,0-8,3.6-8,8v16.8c0,1.5,1.2,2.7,2.7,2.7c4.4,0,8,3.6,8,8c0,4.4-3.6,8-8,8
	c-1.5,0-2.7,1.2-2.7,2.7v16.8c0,4.4,3.6,8,8,8h120.8c4.4,0,8-3.6,8-8v-16.8c0-1.5-1.2-2.7-2.7-2.7c-4.4,0-8-3.6-8-8c0-4.4,3.6-8,8-8
	c1.5,0,2.7-1.2,2.7-2.7v-16.8C184.6,111.1,181,107.5,176.6,107.5z M129.5,73.4l23.4,23.4l-10.7,10.7h-10.6l7.8-7.8c1-1,1-2.7,0-3.8
	c-1-1-2.7-1-3.8,0l-11.6,11.6H95.4L129.5,73.4z M179.2,130c-6.1,1.2-10.7,6.6-10.7,13.1c0,6.5,4.6,11.9,10.7,13.1v14.4
	c0,1.5-1.2,2.7-2.7,2.7H55.8c-1.5,0-2.7-1.2-2.7-2.7v-14.4c6.1-1.2,10.7-6.6,10.7-13.1c0-6.5-4.6-11.9-10.7-13.1v-14.4
	c0-1.5,1.2-2.7,2.7-2.7h120.8c1.5,0,2.7,1.2,2.7,2.7V130z"/>
<linearGradient id="SVGID_5_" gradientUnits="userSpaceOnUse" x1="126.2222" y1="136.6345" x2="132.567" y2="136.6345">
	<stop  offset="0" style="stop-color:#3D3356"/>
	<stop  offset="1" style="stop-color:#E9476E"/>
</linearGradient>
<path class="st5" d="M127.5,138.5c-0.5-0.5-0.8-1.2-0.8-1.9c0-0.7,0.3-1.4,0.8-1.9s1.2-0.8,1.9-0.8s1.4,0.3,1.9,0.8s0.8,1.2,0.8,1.9
	c0,0.7-0.3,1.4-0.8,1.9c-0.5,0.5-1.2,0.8-1.9,0.8S128,139,127.5,138.5z"/>
<linearGradient id="SVGID_6_" gradientUnits="userSpaceOnUse" x1="99.7651" y1="136.6345" x2="106.11" y2="136.6345">
	<stop  offset="0" style="stop-color:#3D3356"/>
	<stop  offset="1" style="stop-color:#E9476E"/>
</linearGradient>
<path class="st6" d="M101,138.5c-0.5-0.5-0.8-1.2-0.8-1.9c0-0.7,0.3-1.4,0.8-1.9c0.5-0.5,1.2-0.8,1.9-0.8s1.4,0.3,1.9,0.8
	c0.5,0.5,0.8,1.2,0.8,1.9c0,0.7-0.3,1.4-0.8,1.9c-0.5,0.5-1.2,0.8-1.9,0.8S101.5,139,101,138.5z"/>
<linearGradient id="SVGID_7_" gradientUnits="userSpaceOnUse" x1="112.9936" y1="136.6345" x2="119.3385" y2="136.6345">
	<stop  offset="0" style="stop-color:#3D3356"/>
	<stop  offset="1" style="stop-color:#E9476E"/>
</linearGradient>
<path class="st7" d="M114.3,138.5c-0.5-0.5-0.8-1.2-0.8-1.9c0-0.7,0.3-1.4,0.8-1.9c0.5-0.5,1.2-0.8,1.9-0.8c0.7,0,1.4,0.3,1.9,0.8
	c0.5,0.5,0.8,1.2,0.8,1.9c0,0.7-0.3,1.4-0.8,1.9c-0.5,0.5-1.2,0.8-1.9,0.8C115.5,139.3,114.8,139,114.3,138.5z"/>
<linearGradient id="SVGID_8_" gradientUnits="userSpaceOnUse" x1="139.4507" y1="136.6345" x2="145.7956" y2="136.6345">
	<stop  offset="0" style="stop-color:#3D3356"/>
	<stop  offset="1" style="stop-color:#E9476E"/>
</linearGradient>
<path class="st8" d="M142.6,139.3c-0.7,0-1.4-0.3-1.9-0.8c-0.5-0.5-0.8-1.2-0.8-1.9c0-0.7,0.3-1.4,0.8-1.9c0.5-0.5,1.2-0.8,1.9-0.8
	c0.7,0,1.4,0.3,1.9,0.8s0.8,1.2,0.8,1.9c0,0.7-0.3,1.4-0.8,1.9C144,139,143.3,139.3,142.6,139.3z"/>
<linearGradient id="SVGID_9_" gradientUnits="userSpaceOnUse" x1="86.5366" y1="136.6345" x2="92.8814" y2="136.6345">
	<stop  offset="0" style="stop-color:#3D3356"/>
	<stop  offset="1" style="stop-color:#E9476E"/>
</linearGradient>
<path class="st9" d="M87.8,138.5c-0.5-0.5-0.8-1.2-0.8-1.9c0-0.7,0.3-1.4,0.8-1.9c0.5-0.5,1.2-0.8,1.9-0.8s1.4,0.3,1.9,0.8
	c0.5,0.5,0.8,1.2,0.8,1.9c0,0.7-0.3,1.4-0.8,1.9c-0.5,0.5-1.2,0.8-1.9,0.8S88.3,139,87.8,138.5z"/>
<linearGradient id="SVGID_10_" gradientUnits="userSpaceOnUse" x1="86.5366" y1="149.4622" x2="145.7956" y2="149.4622">
	<stop  offset="0" style="stop-color:#3D3356"/>
	<stop  offset="1" style="stop-color:#E9476E"/>
</linearGradient>
<path class="st10" d="M142.6,152.1H89.7c-1.5,0-2.7-1.2-2.7-2.7c0-1.5,1.2-2.7,2.7-2.7h52.9c1.5,0,2.7,1.2,2.7,2.7
	C145.3,150.9,144.1,152.1,142.6,152.1z"/>
<linearGradient id="SVGID_11_" gradientUnits="userSpaceOnUse" x1="129.7444" y1="162.2899" x2="136.0892" y2="162.2899">
	<stop  offset="0" style="stop-color:#3D3356"/>
	<stop  offset="1" style="stop-color:#E9476E"/>
</linearGradient>
<path class="st11" d="M132.9,159.6c0.7,0,1.4,0.3,1.9,0.8c0.5,0.5,0.8,1.2,0.8,1.9c0,0.7-0.3,1.4-0.8,1.9c-0.5,0.5-1.2,0.8-1.9,0.8
	c-0.7,0-1.4-0.3-1.9-0.8c-0.5-0.5-0.8-1.2-0.8-1.9c0-0.7,0.3-1.4,0.8-1.9C131.5,159.9,132.2,159.6,132.9,159.6z"/>
<linearGradient id="SVGID_12_" gradientUnits="userSpaceOnUse" x1="72.3727" y1="143.0484" x2="159.9595" y2="143.0484">
	<stop  offset="0" style="stop-color:#3D3356"/>
	<stop  offset="1" style="stop-color:#E9476E"/>
</linearGradient>
<path class="st12" d="M75.5,121.1h81.2c1.5,0,2.7,1.2,2.7,2.7v38.5c0,1.5-1.2,2.7-2.7,2.7h-11.1c-1.5,0-2.7-1.2-2.7-2.7
	c0-1.5,1.2-2.7,2.7-2.7h8.5v-33.1H78.2v33.1h43.4c1.5,0,2.7,1.2,2.7,2.7c0,1.5-1.2,2.7-2.7,2.7H75.5c-1.5,0-2.7-1.2-2.7-2.7v-38.5
	C72.9,122.3,74.1,121.1,75.5,121.1z"/>
</svg>
