<?xml version="1.0" encoding="utf-8"?>
<!-- Generator: Adobe Illustrator 24.0.3, SVG Export Plug-In . SVG Version: 6.00 Build 0)  -->
<svg version="1.1" id="Layer_1" xmlns="http://www.w3.org/2000/svg" xmlns:xlink="http://www.w3.org/1999/xlink" x="0px" y="0px"
	 viewBox="0 0 136.8 136.8" style="enable-background:new 0 0 136.8 136.8;" xml:space="preserve">
<style type="text/css">
	.st0{fill:none;stroke:url(#SVGID_1_);stroke-miterlimit:10;}
	.st1{fill:none;stroke:url(#SVGID_2_);stroke-miterlimit:10;}
	.st2{fill:none;stroke:url(#SVGID_3_);stroke-miterlimit:10;}
	.st3{fill:url(#SVGID_4_);}
	.st4{fill:none;stroke:url(#SVGID_5_);stroke-miterlimit:10;}
	.st5{fill:none;stroke:url(#SVGID_6_);stroke-miterlimit:10;}
	.st6{fill:none;stroke:url(#SVGID_7_);stroke-miterlimit:10;}
	.st7{fill:none;stroke:url(#SVGID_8_);stroke-miterlimit:10;}
	.st8{fill:none;stroke:url(#SVGID_9_);stroke-miterlimit:10;}
	.st9{fill:none;stroke:url(#SVGID_10_);stroke-miterlimit:10;}
	.st10{fill:none;stroke:url(#SVGID_11_);stroke-miterlimit:10;}
	.st11{fill:none;stroke:url(#SVGID_12_);stroke-miterlimit:10;}
</style>
<linearGradient id="SVGID_1_" gradientUnits="userSpaceOnUse" x1="31.8949" y1="55.2755" x2="38.2397" y2="55.2755">
	<stop  offset="0" style="stop-color:#3D3356"/>
	<stop  offset="1" style="stop-color:#E9476E"/>
</linearGradient>
<path class="st0" d="M35.1,57.9c0.7,0,1.4-0.3,1.9-0.8c0.5-0.5,0.8-1.2,0.8-1.9c0-0.7-0.3-1.4-0.8-1.9s-1.2-0.8-1.9-0.8
	c-0.7,0-1.4,0.3-1.9,0.8c-0.5,0.5-0.8,1.2-0.8,1.9c0,0.7,0.3,1.4,0.8,1.9C33.7,57.7,34.4,57.9,35.1,57.9z"/>
<linearGradient id="SVGID_2_" gradientUnits="userSpaceOnUse" x1="68.2859" y1="56.2985" x2="74.6308" y2="56.2985">
	<stop  offset="0" style="stop-color:#3D3356"/>
	<stop  offset="1" style="stop-color:#E9476E"/>
</linearGradient>
<path class="st1" d="M73.3,54.4c-0.5-0.5-1.2-0.8-1.9-0.8c-0.7,0-1.4,0.3-1.9,0.8c-0.5,0.5-0.8,1.2-0.8,1.9c0,0.7,0.3,1.4,0.8,1.9
	c0.5,0.5,1.2,0.8,1.9,0.8c0.7,0,1.4-0.3,1.9-0.8c0.5-0.5,0.8-1.2,0.8-1.9C74.1,55.6,73.8,54.9,73.3,54.4z"/>
<linearGradient id="SVGID_3_" gradientUnits="userSpaceOnUse" x1="77.6394" y1="46.945" x2="83.9843" y2="46.945">
	<stop  offset="0" style="stop-color:#3D3356"/>
	<stop  offset="1" style="stop-color:#E9476E"/>
</linearGradient>
<path class="st2" d="M80.8,49.6c0.7,0,1.4-0.3,1.9-0.8c0.5-0.5,0.8-1.2,0.8-1.9c0-0.7-0.3-1.4-0.8-1.9s-1.2-0.8-1.9-0.8
	c-0.7,0-1.4,0.3-1.9,0.8c-0.5,0.5-0.8,1.2-0.8,1.9c0,0.7,0.3,1.4,0.8,1.9C79.4,49.3,80.1,49.6,80.8,49.6z"/>
<linearGradient id="SVGID_4_" gradientUnits="userSpaceOnUse" x1="0" y1="68.4137" x2="136.8285" y2="68.4137">
	<stop  offset="0" style="stop-color:#3D3356"/>
	<stop  offset="1" style="stop-color:#E9476E"/>
</linearGradient>
<path class="st3" d="M128.8,65.7h-7.5l13.1-13.1c1.5-1.5,2.3-3.5,2.3-5.7c0-2.1-0.8-4.2-2.3-5.7l-11.9-11.9c-1-1-2.7-1-3.8,0
	c-1.5,1.5-3.5,2.3-5.7,2.3c-2.1,0-4.2-0.8-5.7-2.3c-1.5-1.5-2.3-3.5-2.3-5.7c0-2.1,0.8-4.2,2.3-5.7c0.5-0.5,0.8-1.2,0.8-1.9
	c0-0.7-0.3-1.4-0.8-1.9L95.6,2.3C94,0.8,92,0,89.9,0c-2.1,0-4.2,0.8-5.7,2.3L40.1,46.5c-1,1-1,2.7,0,3.8s2.7,1,3.8,0L88,6.1
	c0.5-0.5,1.2-0.8,1.9-0.8c0.7,0,1.4,0.3,1.9,0.8L102,16.3c-1.4,2.2-2.2,4.7-2.2,7.4c0,3.6,1.4,6.9,3.9,9.4c2.5,2.5,5.9,3.9,9.4,3.9
	c2.7,0,5.2-0.8,7.4-2.2l10.2,10.2c1,1,1,2.7,0,3.8l-16.9,16.9h-11.7l8.8-8.8c1-1,1-2.7,0-3.8L83.6,26c-1-1-2.7-1-3.8,0L40.1,65.7H8
	c-4.4,0-8,3.6-8,8v16.8c0,1.5,1.2,2.7,2.7,2.7c4.4,0,8,3.6,8,8c0,4.4-3.6,8-8,8c-1.5,0-2.7,1.2-2.7,2.7v16.8c0,4.4,3.6,8,8,8h120.8
	c4.4,0,8-3.6,8-8V112c0-1.5-1.2-2.7-2.7-2.7c-4.4,0-8-3.6-8-8c0-4.4,3.6-8,8-8c1.5,0,2.7-1.2,2.7-2.7V73.8
	C136.8,69.3,133.2,65.7,128.8,65.7z M81.8,31.6l23.4,23.4L94.5,65.7H83.9l7.8-7.8c1-1,1-2.7,0-3.8c-1-1-2.7-1-3.8,0L76.4,65.7H47.7
	L81.8,31.6z M131.5,88.2c-6.1,1.2-10.7,6.6-10.7,13.1c0,6.5,4.6,11.9,10.7,13.1v14.4c0,1.5-1.2,2.7-2.7,2.7H8
	c-1.5,0-2.7-1.2-2.7-2.7v-14.4c6.1-1.2,10.7-6.6,10.7-13.1c0-6.5-4.6-11.9-10.7-13.1V73.8c0-1.5,1.2-2.7,2.7-2.7h120.8
	c1.5,0,2.7,1.2,2.7,2.7V88.2z"/>
<linearGradient id="SVGID_5_" gradientUnits="userSpaceOnUse" x1="78.4704" y1="94.8703" x2="84.8152" y2="94.8703">
	<stop  offset="0" style="stop-color:#3D3356"/>
	<stop  offset="1" style="stop-color:#E9476E"/>
</linearGradient>
<path class="st4" d="M79.8,96.8c-0.5-0.5-0.8-1.2-0.8-1.9c0-0.7,0.3-1.4,0.8-1.9c0.5-0.5,1.2-0.8,1.9-0.8c0.7,0,1.4,0.3,1.9,0.8
	c0.5,0.5,0.8,1.2,0.8,1.9c0,0.7-0.3,1.4-0.8,1.9c-0.5,0.5-1.2,0.8-1.9,0.8C80.9,97.5,80.3,97.3,79.8,96.8z"/>
<linearGradient id="SVGID_6_" gradientUnits="userSpaceOnUse" x1="52.0133" y1="94.8703" x2="58.3582" y2="94.8703">
	<stop  offset="0" style="stop-color:#3D3356"/>
	<stop  offset="1" style="stop-color:#E9476E"/>
</linearGradient>
<path class="st5" d="M53.3,96.8c-0.5-0.5-0.8-1.2-0.8-1.9c0-0.7,0.3-1.4,0.8-1.9c0.5-0.5,1.2-0.8,1.9-0.8s1.4,0.3,1.9,0.8
	c0.5,0.5,0.8,1.2,0.8,1.9c0,0.7-0.3,1.4-0.8,1.9c-0.5,0.5-1.2,0.8-1.9,0.8S53.8,97.3,53.3,96.8z"/>
<linearGradient id="SVGID_7_" gradientUnits="userSpaceOnUse" x1="65.2418" y1="94.8703" x2="71.5867" y2="94.8703">
	<stop  offset="0" style="stop-color:#3D3356"/>
	<stop  offset="1" style="stop-color:#E9476E"/>
</linearGradient>
<path class="st6" d="M66.5,96.8c-0.5-0.5-0.8-1.2-0.8-1.9c0-0.7,0.3-1.4,0.8-1.9c0.5-0.5,1.2-0.8,1.9-0.8c0.7,0,1.4,0.3,1.9,0.8
	c0.5,0.5,0.8,1.2,0.8,1.9c0,0.7-0.3,1.4-0.8,1.9c-0.5,0.5-1.2,0.8-1.9,0.8C67.7,97.5,67,97.3,66.5,96.8z"/>
<linearGradient id="SVGID_8_" gradientUnits="userSpaceOnUse" x1="91.6989" y1="94.8703" x2="98.0438" y2="94.8703">
	<stop  offset="0" style="stop-color:#3D3356"/>
	<stop  offset="1" style="stop-color:#E9476E"/>
</linearGradient>
<path class="st7" d="M94.9,97.5c-0.7,0-1.4-0.3-1.9-0.8c-0.5-0.5-0.8-1.2-0.8-1.9c0-0.7,0.3-1.4,0.8-1.9c0.5-0.5,1.2-0.8,1.9-0.8
	c0.7,0,1.4,0.3,1.9,0.8c0.5,0.5,0.8,1.2,0.8,1.9c0,0.7-0.3,1.4-0.8,1.9C96.3,97.3,95.6,97.5,94.9,97.5z"/>
<linearGradient id="SVGID_9_" gradientUnits="userSpaceOnUse" x1="38.7847" y1="94.8703" x2="45.1296" y2="94.8703">
	<stop  offset="0" style="stop-color:#3D3356"/>
	<stop  offset="1" style="stop-color:#E9476E"/>
</linearGradient>
<path class="st8" d="M40.1,96.8c-0.5-0.5-0.8-1.2-0.8-1.9c0-0.7,0.3-1.4,0.8-1.9c0.5-0.5,1.2-0.8,1.9-0.8s1.4,0.3,1.9,0.8
	c0.5,0.5,0.8,1.2,0.8,1.9c0,0.7-0.3,1.4-0.8,1.9c-0.5,0.5-1.2,0.8-1.9,0.8S40.6,97.3,40.1,96.8z"/>
<linearGradient id="SVGID_10_" gradientUnits="userSpaceOnUse" x1="38.7847" y1="107.698" x2="98.0438" y2="107.698">
	<stop  offset="0" style="stop-color:#3D3356"/>
	<stop  offset="1" style="stop-color:#E9476E"/>
</linearGradient>
<path class="st9" d="M94.9,110.4H42c-1.5,0-2.7-1.2-2.7-2.7c0-1.5,1.2-2.7,2.7-2.7h52.9c1.5,0,2.7,1.2,2.7,2.7
	C97.5,109.2,96.3,110.4,94.9,110.4z"/>
<linearGradient id="SVGID_11_" gradientUnits="userSpaceOnUse" x1="81.9925" y1="120.5256" x2="88.3374" y2="120.5256">
	<stop  offset="0" style="stop-color:#3D3356"/>
	<stop  offset="1" style="stop-color:#E9476E"/>
</linearGradient>
<path class="st10" d="M85.2,117.9c0.7,0,1.4,0.3,1.9,0.8c0.5,0.5,0.8,1.2,0.8,1.9c0,0.7-0.3,1.4-0.8,1.9c-0.5,0.5-1.2,0.8-1.9,0.8
	c-0.7,0-1.4-0.3-1.9-0.8c-0.5-0.5-0.8-1.2-0.8-1.9c0-0.7,0.3-1.4,0.8-1.9C83.8,118.1,84.5,117.9,85.2,117.9z"/>
<linearGradient id="SVGID_12_" gradientUnits="userSpaceOnUse" x1="24.6209" y1="101.2841" x2="112.2077" y2="101.2841">
	<stop  offset="0" style="stop-color:#3D3356"/>
	<stop  offset="1" style="stop-color:#E9476E"/>
</linearGradient>
<path class="st11" d="M27.8,79.4H109c1.5,0,2.7,1.2,2.7,2.7v38.5c0,1.5-1.2,2.7-2.7,2.7H97.9c-1.5,0-2.7-1.2-2.7-2.7
	c0-1.5,1.2-2.7,2.7-2.7h8.5V84.7H30.5v33.1h43.4c1.5,0,2.7,1.2,2.7,2.7c0,1.5-1.2,2.7-2.7,2.7H27.8c-1.5,0-2.7-1.2-2.7-2.7V82
	C25.1,80.6,26.3,79.4,27.8,79.4z"/>
</svg>
